<svg width="56" height="69" viewBox="0 0 56 69" fill="none" xmlns="http://www.w3.org/2000/svg">
<path d="M53.3527 30.4277H50.8175C50.8175 20.6165 42.8823 12.6813 33.071 12.6813H30.5358V9.46154C31.3068 9.0164 31.947 8.37612 32.392 7.60507C32.8371 6.83402 33.0713 5.95939 33.071 5.06912C33.0708 4.17886 32.8362 3.30434 32.3907 2.53352C31.9453 1.7627 31.3048 1.12275 30.5336 0.678008C29.7623 0.233271 28.8876 -0.000569543 27.9974 1.0417e-06C27.1071 0.000571626 26.2327 0.235533 25.462 0.681259C24.6914 1.12698 24.0517 1.76776 23.6072 2.53915C23.1628 3.31054 22.9293 4.18536 22.9302 5.07562C22.9302 6.95168 23.9443 8.59956 25.4654 9.46154V12.6813H22.9302C13.1189 12.6813 5.1837 20.6165 5.1837 30.4277H2.64849C1.25413 30.4277 0.113281 31.5686 0.113281 32.9629V40.5686C0.113281 41.9629 1.25413 43.1038 2.64849 43.1038H5.1837V45.639C5.1837 46.9838 5.71791 48.2734 6.6688 49.2243C7.61968 50.1752 8.90937 50.7094 10.2541 50.7094H45.7471C48.5612 50.7094 50.8175 48.4531 50.8175 45.639V43.1038H53.3527C54.7471 43.1038 55.8879 41.9629 55.8879 40.5686V32.9629C55.8879 31.5686 54.7471 30.4277 53.3527 30.4277ZM22.3978 36.7658C21.4091 34.5348 19.2034 32.9629 16.5922 32.9629C13.9809 32.9629 11.7753 34.5348 10.7865 36.7658C10.4569 35.9798 10.2541 35.1432 10.2541 34.2306C10.2541 32.5496 10.9219 30.9375 12.1105 29.7489C13.2991 28.5603 14.9112 27.8925 16.5922 27.8925C18.2731 27.8925 19.8852 28.5603 21.0738 29.7489C22.2624 30.9375 22.9302 32.5496 22.9302 34.2306C22.9302 35.1432 22.7274 35.9798 22.3978 36.7658ZM45.2147 36.7658C44.226 34.5348 41.9443 32.9629 39.4091 32.9629C36.8738 32.9629 34.5922 34.5348 33.6034 36.7658C33.2738 35.9798 33.071 35.1432 33.071 34.2306C33.071 32.5496 33.7388 30.9375 34.9274 29.7489C36.116 28.5603 37.7281 27.8925 39.4091 27.8925C41.09 27.8925 42.7021 28.5603 43.8907 29.7489C45.0793 30.9375 45.7471 32.5496 45.7471 34.2306C45.7471 35.1432 45.5443 35.9798 45.2147 36.7658Z" fill="#496653"/>
<path d="M27.5036 67.9984C27.5298 66.1798 27.6997 64.5223 28.009 63.0003L28.0279 62.9071L28.0113 62.8135C27.6747 60.9142 27.5025 58.3136 27.5015 54.999C27.5015 46.9913 33.9928 40.5 42.0007 40.5C42.7117 40.5 43.4311 40.5889 44.2247 40.7056C44.389 40.7298 44.5566 40.7552 44.7278 40.7811C45.375 40.8791 46.0722 40.9846 46.8256 41.06C48.6167 41.2391 50.7419 41.2503 53.5 40.6324V42.9998C53.5 50.1277 51.5123 55.2418 48.3647 58.5706C45.2184 61.898 40.8596 63.4987 36.001 63.4987H33.6906C33.8741 61.5365 34.289 59.9494 35.0335 58.501C35.8459 56.9205 37.0679 55.4722 38.8762 53.8722C39.3468 53.4559 39.7011 53.0738 39.952 52.7372C40.1962 52.4096 40.367 52.0925 40.4267 51.8075C40.4566 51.6648 40.4678 51.487 40.4032 51.311C40.3308 51.1137 40.178 50.9631 39.976 50.8959C39.7959 50.836 39.618 50.8553 39.479 50.8915C39.3349 50.929 39.1912 50.9952 39.0526 51.0777C39.0526 51.0777 39.0526 51.0777 39.0526 51.0777L27.5036 67.9984ZM27.5036 67.9984H29.5039L29.5043 67.9394L29.5044 67.9349L29.5044 67.9349C29.573 63.9384 30.3815 60.6526 31.9769 57.8924C33.5726 55.1317 35.9347 52.9329 39.0526 51.0777L27.5036 67.9984Z" fill="#496653" stroke="#F4F9F4"/>
<path d="M26.4964 67.9984C26.4702 66.1798 26.3003 64.5223 25.991 63.0003L25.9721 62.9071L25.9887 62.8135C26.3253 60.9142 26.4975 58.3136 26.4985 54.999C26.4985 46.9913 20.0072 40.5 11.9993 40.5C11.2883 40.5 10.5689 40.5889 9.77533 40.7056C9.61103 40.7298 9.44336 40.7552 9.27219 40.7811C8.62496 40.8791 7.92779 40.9846 7.17436 41.06C5.38326 41.2391 3.25806 41.2503 0.5 40.6324V42.9998C0.5 50.1277 2.4877 55.2418 5.63532 58.5706C8.78161 61.898 13.1404 63.4987 17.999 63.4987H20.3094C20.1259 61.5365 19.711 59.9494 18.9665 58.501C18.1541 56.9205 16.9321 55.4722 15.1238 53.8722C14.6532 53.4559 14.2989 53.0738 14.048 52.7372C13.8038 52.4096 13.633 52.0925 13.5733 51.8075C13.5434 51.6648 13.5322 51.487 13.5968 51.311C13.6692 51.1137 13.822 50.9631 14.024 50.8959C14.2041 50.836 14.382 50.8553 14.521 50.8915C14.6651 50.929 14.8088 50.9952 14.9474 51.0777C14.9474 51.0777 14.9474 51.0777 14.9474 51.0777L26.4964 67.9984ZM26.4964 67.9984H24.4961L24.4957 67.9394L24.4956 67.9349L24.4956 67.9349C24.427 63.9384 23.6185 60.6526 22.0231 57.8924C20.4274 55.1317 18.0653 52.9329 14.9474 51.0777L26.4964 67.9984Z" fill="#496653" stroke="#F4F9F4"/>
</svg>
