<svg width="100" height="100" viewBox="0 0 100 100" fill="none" xmlns="http://www.w3.org/2000/svg">
<rect width="100" height="100" fill="#496653"/>
<path d="M75.3527 46.4277H72.8175C72.8175 36.6165 64.8823 28.6813 55.071 28.6813H52.5358V25.4615C53.3068 25.0164 53.947 24.3761 54.392 23.6051C54.8371 22.834 55.0713 21.9594 55.071 21.0691C55.0708 20.1789 54.8362 19.3043 54.3907 18.5335C53.9453 17.7627 53.3048 17.1227 52.5336 16.678C51.7623 16.2333 50.8876 15.9994 49.9974 16C49.1071 16.0006 48.2327 16.2355 47.462 16.6813C46.6914 17.127 46.0517 17.7678 45.6072 18.5392C45.1628 19.3105 44.9293 20.1854 44.9302 21.0756C44.9302 22.9517 45.9443 24.5996 47.4654 25.4615V28.6813H44.9302C35.1189 28.6813 27.1837 36.6165 27.1837 46.4277H24.6485C23.2541 46.4277 22.1133 47.5686 22.1133 48.9629V56.5686C22.1133 57.9629 23.2541 59.1038 24.6485 59.1038H27.1837V61.639C27.1837 62.9838 27.7179 64.2734 28.6688 65.2243C29.6197 66.1752 30.9094 66.7094 32.2541 66.7094H67.7471C70.5612 66.7094 72.8175 64.4531 72.8175 61.639V59.1038H75.3527C76.7471 59.1038 77.8879 57.9629 77.8879 56.5686V48.9629C77.8879 47.5686 76.7471 46.4277 75.3527 46.4277ZM44.3978 52.7658C43.4091 50.5348 41.2034 48.9629 38.5922 48.9629C35.9809 48.9629 33.7753 50.5348 32.7865 52.7658C32.4569 51.9798 32.2541 51.1432 32.2541 50.2306C32.2541 48.5496 32.9219 46.9375 34.1105 45.7489C35.2991 44.5603 36.9112 43.8925 38.5922 43.8925C40.2731 43.8925 41.8852 44.5603 43.0738 45.7489C44.2624 46.9375 44.9302 48.5496 44.9302 50.2306C44.9302 51.1432 44.7274 51.9798 44.3978 52.7658ZM67.2147 52.7658C66.226 50.5348 63.9443 48.9629 61.4091 48.9629C58.8738 48.9629 56.5922 50.5348 55.6034 52.7658C55.2738 51.9798 55.071 51.1432 55.071 50.2306C55.071 48.5496 55.7388 46.9375 56.9274 45.7489C58.116 44.5603 59.7281 43.8925 61.4091 43.8925C63.09 43.8925 64.7021 44.5603 65.8907 45.7489C67.0793 46.9375 67.7471 48.5496 67.7471 50.2306C67.7471 51.1432 67.5443 51.9798 67.2147 52.7658Z" fill="#F4F9F4"/>
<path d="M49.5036 83.9984C49.5298 82.1798 49.6997 80.5223 50.009 79.0003L50.0279 78.9071L50.0113 78.8135C49.6747 76.9142 49.5025 74.3136 49.5015 70.999C49.5015 62.9913 55.9928 56.5 64.0007 56.5C64.7117 56.5 65.4311 56.5889 66.2247 56.7056C66.389 56.7298 66.5566 56.7552 66.7278 56.7811C67.375 56.8791 68.0722 56.9846 68.8256 57.06C70.6167 57.2391 72.7419 57.2503 75.5 56.6324V58.9998C75.5 66.1277 73.5123 71.2418 70.3647 74.5706C67.2184 77.898 62.8596 79.4987 58.001 79.4987H55.6906C55.8741 77.5365 56.289 75.9494 57.0335 74.501C57.8459 72.9205 59.0679 71.4722 60.8762 69.8722C61.3468 69.4559 61.7011 69.0738 61.952 68.7372C62.1962 68.4096 62.367 68.0925 62.4267 67.8075C62.4566 67.6648 62.4678 67.487 62.4032 67.311C62.3308 67.1137 62.178 66.9631 61.976 66.8959C61.7959 66.836 61.618 66.8553 61.479 66.8915C61.3349 66.929 61.1912 66.9952 61.0526 67.0777C61.0526 67.0777 61.0526 67.0777 61.0526 67.0777L49.5036 83.9984ZM49.5036 83.9984H51.5039L51.5043 83.9394L51.5044 83.9349L51.5044 83.9349C51.573 79.9384 52.3815 76.6526 53.9769 73.8924C55.5726 71.1317 57.9347 68.9329 61.0526 67.0777L49.5036 83.9984Z" fill="#F4F9F4" stroke="#496653"/>
<path d="M48.4964 83.9984C48.4702 82.1798 48.3003 80.5223 47.991 79.0003L47.9721 78.9071L47.9887 78.8135C48.3253 76.9142 48.4975 74.3136 48.4985 70.999C48.4985 62.9913 42.0072 56.5 33.9993 56.5C33.2883 56.5 32.5689 56.5889 31.7753 56.7056C31.611 56.7298 31.4434 56.7552 31.2722 56.7811C30.625 56.8791 29.9278 56.9846 29.1744 57.06C27.3833 57.2391 25.2581 57.2503 22.5 56.6324V58.9998C22.5 66.1277 24.4877 71.2418 27.6353 74.5706C30.7816 77.898 35.1404 79.4987 39.999 79.4987H42.3094C42.1259 77.5365 41.711 75.9494 40.9665 74.501C40.1541 72.9205 38.9321 71.4722 37.1239 69.8723C36.6532 69.4559 36.2989 69.0738 36.048 68.7372C35.8038 68.4096 35.633 68.0925 35.5733 67.8075C35.5434 67.6648 35.5322 67.487 35.5968 67.311C35.6692 67.1137 35.822 66.9631 36.024 66.8959C36.2041 66.836 36.382 66.8553 36.521 66.8915C36.6651 66.929 36.8088 66.9952 36.9474 67.0777L48.4964 83.9984ZM48.4964 83.9984H46.4961L46.4957 83.9394L46.4956 83.9349H46.4956C46.427 79.9384 45.6185 76.6526 44.0231 73.8924C42.4274 71.1317 40.0653 68.9329 36.9474 67.0777L48.4964 83.9984Z" fill="#F4F9F4" stroke="#496653"/>
</svg>
