<svg width="227" height="190" viewBox="0 0 227 190" fill="none" xmlns="http://www.w3.org/2000/svg">
<path d="M140.503 52C145.424 52 149.45 53.0238 152.581 55.0715C155.712 57.1191 158.284 59.7355 160.297 62.9206C162.534 66.7884 164.099 70.7699 164.993 74.8651C165.665 79.1879 166 82.7144 166 85.4446C166 96.5928 163.204 106.717 157.613 115.818C152.022 124.919 143.3 132.312 131.445 138L128.426 131.857C135.359 128.899 141.398 124.236 146.542 117.865C151.462 111.495 153.923 105.011 153.923 98.4128C153.923 95.6827 153.588 93.2938 152.916 91.2462C149.338 94.2039 145.201 95.6827 140.503 95.6827C134.688 95.6827 129.656 93.7488 125.407 89.8811C121.157 86.0133 119.032 80.6668 119.032 73.8414C119.032 67.4709 121.157 62.2382 125.407 58.1428C129.656 54.0476 134.688 52 140.503 52ZM83.471 52C88.3915 52 92.4172 53.0238 95.5485 55.0715C98.6797 57.1191 101.252 59.7355 103.265 62.9206C105.501 66.7884 107.067 70.7699 107.961 74.8651C108.632 79.1879 108.968 82.7144 108.968 85.4446C108.968 96.5928 106.172 106.717 100.581 115.818C94.9894 124.919 86.2667 132.312 74.413 138L71.3936 131.857C78.3269 128.899 84.3657 124.236 89.5097 117.865C94.4302 111.495 96.8904 105.011 96.8904 98.4128C96.8904 95.6827 96.5549 93.2938 95.884 91.2462C92.3055 94.2039 88.1678 95.6827 83.471 95.6827C77.656 95.6827 72.6237 93.7488 68.3742 89.8811C64.1248 86.0133 62 80.6668 62 73.8414C62 67.4709 64.1248 62.2382 68.3742 58.1428C72.6237 54.0476 77.656 52 83.471 52Z" fill="#34495E"/>
</svg>
